<?xml version="1.0" encoding="UTF-8"?>
<!DOCTYPE svg PUBLIC "-//W3C//DTD SVG 1.1//EN" "http://www.w3.org/Graphics/SVG/1.1/DTD/svg11.dtd">
<!-- Creator: CorelDRAW X7 -->
<svg xmlns="http://www.w3.org/2000/svg" xml:space="preserve" width="106.585mm" height="112.464mm" version="1.1" style="shape-rendering:geometricPrecision; text-rendering:geometricPrecision; image-rendering:optimizeQuality; fill-rule:evenodd; clip-rule:evenodd"
viewBox="0 0 10160 10720"
 xmlns:xlink="http://www.w3.org/1999/xlink">
 <defs>
  <style type="text/css">
   <![CDATA[
    .str2 {stroke:#FEFEFE;stroke-width:19.0642}
    .str1 {stroke:#373435;stroke-width:19.0642}
    .str0 {stroke:#FEB606;stroke-width:19.0642}
    .str3 {stroke:black;stroke-width:19.0642}
    .fil17 {fill:#FEFEFE}
    .fil11 {fill:#FEFEFE}
    .fil1 {fill:black}
    .fil5 {fill:#5E5656}
    .fil16 {fill:#5E5656}
    .fil2 {fill:#C08300}
    .fil3 {fill:#C18500}
    .fil12 {fill:#C18500}
    .fil6 {fill:#FAC85A}
    .fil4 {fill:#FEB606}
    .fil0 {fill:#FEB606}
    .fil8 {fill:#FFB400}
    .fil14 {fill:#FFC552}
    .fil7 {fill:#FFF2DB}
    .fil13 {fill:black}
    .fil15 {fill:black}
    .fil10 {fill:#FEFEFE;fill-rule:nonzero}
    .fil9 {fill:#FEB606;fill-rule:nonzero}
   ]]>
  </style>
 </defs>
 <g id="Layer_x0020_1">
  <metadata id="CorelCorpID_0Corel-Layer"/>
  <rect class="fil0 str0" transform="matrix(0.867832 0.470969 -0.622231 1.14655 4389.6 -255.228)" width="6943" height="6943" rx="752" ry="752"/>
  <path class="fil1" d="M3405 3784c495,166 751,1029 752,1526 3,674 -199,1115 -363,1725 265,336 338,275 207,760 -70,261 -178,532 -166,816l161 9c212,-160 934,-798 1159,-588l678 99c1331,21 2303,-421 2959,-1524 301,-507 422,-1107 389,-1693 -46,-818 -282,-1084 -633,-1739 -719,-802 -1640,-1241 -2769,-1114 -965,110 -2086,823 -2374,1723z"/>
  <path class="fil2" d="M1812 3662c606,-46 683,80 1164,123l234 -489c21,-270 234,-619 524,-649l213 -199c84,-288 564,-481 839,-599 208,-89 952,-402 1085,-173l403 -41c-225,-156 -1213,-408 -1557,-517 -1865,-590 -1645,-455 -2314,1107 -168,391 -508,1055 -591,1437z"/>
  <path class="fil3" d="M6395 8520l-293 14c-238,93 -604,45 -807,-110l-787 541c447,192 1896,758 2321,857 547,126 788,-187 947,-635 137,-384 311,-805 421,-1193 -71,-17 -14,-33 -121,-6 -16,4 -67,29 -84,37 -37,17 -165,99 -213,125 -352,193 -1006,454 -1384,370z"/>
  <path class="fil4" d="M6395 8520c378,84 1032,-177 1384,-370 48,-26 176,-108 213,-125 17,-8 68,-33 84,-37 107,-27 50,-11 121,6 137,-262 387,-404 603,-690 214,-283 366,-429 519,-791 393,-931 294,-1286 242,-2250 -88,-121 -275,-758 -445,-1031 -184,-296 -495,-538 -640,-809 -426,-270 -1205,-811 -1773,-753 69,165 -22,106 244,185l780 315c312,178 612,394 847,668 1245,1449 1138,3003 11,4465 -529,687 -1338,889 -2153,1091l-37 126z"/>
  <path class="fil2" d="M1030 6494c-325,-48 -171,-141 -451,-285 -171,411 -300,855 131,1169 166,120 911,385 1082,378 -78,-221 -145,-558 -257,-753 -162,-283 -315,-309 -505,-509z"/>
  <path class="fil2" d="M3536 4417c245,188 277,632 82,865l-10 163c45,398 -229,902 -147,1144l159 211c164,-610 365,-1051 363,-1725 -2,-497 -257,-1360 -753,-1526l-123 290c195,243 284,251 429,578z"/>
  <path class="fil5" d="M2864 6896l-87 27 -477 155 -110 14 -180 86c-161,110 -68,-54 -111,158 147,92 -35,74 198,41l938 -298c9,253 -81,187 -382,281 -253,79 -285,127 -540,93l-115 180c135,181 -9,49 224,162 -31,276 -48,62 -52,352l218 20c205,-197 683,-308 984,-339 161,-172 69,12 87,-244l-221 17 -879 318 -75 -213 846 -283 129 111c36,-292 16,-44 88,-305l-221 -89c120,-230 53,-51 100,-299l-180 -7 -182 62z"/>
  <path class="fil6" d="M5833 8131c459,234 1482,-80 1938,-332 2218,-1224 1655,-4159 777,-4624 351,655 587,921 633,1739 33,586 -88,1186 -389,1693 -656,1103 -1628,1545 -2959,1524z"/>
  <path class="fil1" d="M4885 4644c-434,315 -59,1343 515,998 461,-277 100,-1443 -515,-998z"/>
  <path class="fil6" d="M1074 4438c284,439 1091,143 1134,-331 -301,-439 -1105,-110 -1134,331z"/>
  <path class="fil1" d="M2388 8167l36 242 623 122c293,-313 370,-323 325,-703 -301,31 -779,142 -984,339z"/>
  <path class="fil7" d="M1740 5696c-203,7 -126,64 -169,-83 209,-55 72,-85 169,83zm683 -221c-18,-194 -44,-139 141,-167 -29,164 29,94 -141,167zm-388 1068l155 549 110 -14 -171 -571 -255 -753 477 -155 244 771 182 553 87 -27 -188 -586 -239 -694c167,-183 208,-72 203,-341l-194 -45c-375,285 236,164 -515,432 -263,-140 -100,-260 -440,-110 -11,226 20,320 296,220l248 771z"/>
  <polygon class="fil4" points="2129,6507 2595,6370 2351,5599 1874,5754 "/>
  <path class="fil4" d="M3947 2448c306,-40 598,-309 897,-435 300,-125 821,-145 1027,-337 -133,-229 -877,84 -1085,173 -275,118 -755,311 -839,599z"/>
  <polygon class="fil2" points="2129,6507 2300,7078 2777,6923 2595,6370 "/>
  <path class="fil2" d="M2676 6310l188 586 182 -62 106 -702c-164,-78 -215,77 -476,178z"/>
  <polygon class="fil2" points="2010,7178 2190,7092 2035,6543 1514,6537 "/>
  <polygon class="fil1" points="3238,7601 3259,7534 3130,7423 2284,7706 2359,7919 "/>
  <path class="fil6" d="M3996 8620c196,161 876,-508 1159,-588 -225,-210 -947,428 -1159,588z"/>
  <path class="fil4" d="M3461 6589c-82,-242 192,-746 147,-1144 -187,244 -370,927 -290,1202l143 -58z"/>
  <path class="fil1" d="M2097 7377l16 76c255,34 287,-14 540,-93 301,-94 391,-28 382,-281l-938 298z"/>
  <path class="fil4" d="M5295 8424c203,155 569,203 807,110 -134,-187 -495,-173 -739,-214l-68 104z"/>
  <path class="fil4" d="M3210 3296c212,-98 479,-435 524,-649 -290,30 -503,379 -524,649z"/>
  <path class="fil4" d="M3618 5282c195,-233 163,-677 -82,-865l82 865z"/>
  <path class="fil4" d="M1992 8387c-48,-289 -242,-267 -551,-298l551 298z"/>
  <path class="fil4" d="M2423 5475c170,-73 112,-3 141,-167 -185,28 -159,-27 -141,167z"/>
  <path class="fil8" d="M1571 5613c43,147 -34,90 169,83 -97,-168 40,-138 -169,-83z"/>
  <path class="fil9" d="M4207 3806c-6,15 -11,32 -14,52 -4,20 -4,39 -3,57 2,11 4,21 8,31 3,9 8,17 15,24 7,7 17,11 29,14 12,3 27,4 46,2l125 -14 -14 -136c-4,-30 -2,-57 4,-81 6,-25 16,-46 30,-63 15,-18 33,-32 56,-43 22,-11 49,-18 79,-21l93 -7c9,-1 18,0 26,3 8,2 15,6 21,12 7,6 12,12 16,20 4,7 7,16 8,24l26 257 77 -8 14 130 -142 14c-9,1 -18,1 -26,-2 -8,-2 -15,-6 -22,-12 -6,-5 -12,-11 -16,-19 -4,-7 -7,-16 -7,-25l-27 -259c-5,0 -10,0 -15,1 -5,0 -10,0 -15,1 -11,1 -20,3 -27,6 -7,3 -13,7 -17,12 -3,5 -6,11 -7,19 -1,8 -1,17 0,28l21 197c1,9 0,18 -2,27 -2,9 -5,17 -10,23 -5,7 -11,13 -19,17 -8,5 -17,8 -27,9l-189 19c-41,4 -75,2 -105,-7 -29,-9 -53,-23 -72,-41 -19,-18 -34,-39 -45,-64 -10,-24 -16,-49 -19,-75 -2,-15 -2,-30 -1,-45 1,-15 2,-30 5,-44 2,-15 5,-29 9,-43 4,-13 8,-26 12,-37l121 47zm165 443c-1,-10 0,-19 2,-28 3,-8 7,-16 13,-23 6,-7 12,-13 20,-17 8,-4 17,-7 26,-8 10,-1 20,0 28,2 9,3 17,7 24,13 7,6 12,12 17,20 4,8 7,17 8,27 1,9 0,18 -3,27 -2,9 -7,17 -12,24 -6,7 -13,12 -21,17 -8,4 -16,7 -26,8 -10,1 -19,0 -27,-3 -9,-2 -17,-7 -24,-12 -7,-6 -12,-13 -17,-21 -4,-8 -7,-16 -8,-26zm-155 16c-1,-10 0,-19 2,-27 3,-9 7,-17 13,-24 5,-7 12,-13 20,-17 8,-4 17,-7 26,-8 10,-1 19,0 28,2 9,3 17,7 24,13 7,6 12,12 17,20 4,8 7,17 8,27 1,9 0,18 -3,27 -2,9 -7,17 -12,24 -6,7 -13,12 -21,17 -8,4 -17,7 -26,8 -10,1 -19,0 -28,-3 -8,-2 -16,-7 -23,-12 -7,-6 -13,-13 -17,-21 -4,-8 -7,-16 -8,-26zm609 -335l143 -15 -32 -308 130 -13 38 367c0,1 0,2 0,3 0,1 0,2 0,3 1,9 0,17 -2,25 -3,9 -7,16 -12,23 -6,6 -12,11 -20,15 -7,5 -15,7 -24,8l-208 22 -13 -130zm79 264c-1,-10 0,-19 2,-28 3,-8 7,-16 13,-23 5,-7 12,-13 20,-17 8,-5 17,-7 26,-8 10,-1 19,0 28,2 9,3 16,7 24,13 6,5 12,12 17,20 4,8 7,17 8,27 1,9 0,18 -3,27 -3,9 -7,16 -12,23 -6,7 -13,13 -21,18 -8,4 -17,7 -26,8 -10,1 -19,0 -28,-3 -8,-3 -16,-7 -23,-12 -7,-6 -13,-13 -17,-21 -4,-8 -7,-17 -8,-26zm529 -196l-165 17c-9,1 -17,0 -26,-2 -8,-3 -15,-7 -22,-12 -6,-5 -12,-12 -16,-19 -4,-8 -7,-16 -8,-25 0,-1 0,-1 0,-2 0,-1 -1,-2 0,-4l-59 -564 130 -13 52 505 100 -10 14 129zm-8 1l-14 -130 102 -10 -31 -308 129 -14 32 308 92 -9 14 129 -324 34zm115 129c-1,-10 0,-19 3,-28 2,-8 6,-16 12,-23 6,-7 13,-13 21,-17 7,-5 16,-7 26,-8 9,-1 19,0 27,2 9,3 17,7 24,13 7,5 13,12 17,20 5,8 7,17 8,27 1,9 0,18 -2,27 -3,9 -7,16 -13,23 -6,7 -13,13 -21,18 -7,4 -16,7 -26,8 -10,1 -19,0 -27,-3 -9,-3 -17,-7 -24,-12 -7,-6 -12,-13 -17,-21 -4,-8 -7,-17 -8,-26zm187 -291l107 -11 -32 -309 131 -13 32 308 93 -10 -32 -308 128 -13 32 308 94 -10 -32 -308 130 -13 39 373c0,9 0,17 -3,25 -3,9 -7,16 -12,23 -5,6 -11,11 -19,15 -8,5 -16,7 -24,8l-619 64 -13 -129zm265 -596c-1,-10 0,-19 2,-28 3,-9 7,-16 13,-23 5,-7 12,-13 20,-17 8,-4 17,-7 26,-8 9,-1 19,0 27,2 9,3 17,7 24,13 6,5 12,12 17,20 4,8 7,17 8,26 1,10 0,19 -3,27 -2,9 -7,17 -12,24 -6,7 -13,12 -21,17 -7,4 -16,7 -26,8 -9,1 -18,0 -27,-3 -9,-2 -16,-6 -23,-12 -7,-6 -13,-12 -17,-20 -4,-8 -7,-17 -8,-26zm-68 140c-1,-10 0,-19 3,-28 3,-9 7,-16 13,-23 5,-7 12,-13 20,-17 8,-5 17,-7 26,-8 10,-1 19,0 28,2 9,3 16,7 24,12 6,6 12,13 16,21 5,8 7,17 8,26 1,10 1,19 -2,27 -3,9 -7,17 -12,24 -6,7 -13,12 -21,17 -8,4 -17,7 -27,8 -9,1 -18,0 -27,-3 -8,-2 -16,-6 -23,-12 -7,-6 -13,-12 -17,-20 -5,-8 -8,-17 -9,-26zm163 -17c-1,-10 0,-19 2,-28 3,-8 7,-16 13,-23 5,-7 12,-13 20,-17 8,-4 17,-7 26,-8 10,-1 19,0 28,2 8,3 16,7 23,13 7,5 13,12 17,20 4,8 7,17 8,27 1,9 0,18 -2,27 -3,8 -7,16 -13,23 -5,7 -12,13 -20,17 -8,4 -17,7 -27,8 -9,1 -18,0 -27,-2 -8,-3 -16,-7 -23,-13 -7,-5 -13,-12 -17,-20 -4,-8 -7,-17 -8,-26z"/>
  <path class="fil10" d="M5401 5841c40,94 95,162 164,205 70,42 153,58 251,48 26,-3 54,-9 83,-18l7 67c-97,38 -185,61 -265,70 -123,12 -237,-10 -341,-66 -104,-57 -187,-146 -250,-270 -167,-21 -307,-95 -422,-223 -114,-127 -181,-287 -201,-479 -23,-222 25,-414 145,-575 121,-162 285,-254 494,-275 208,-22 386,34 536,168 150,134 236,312 259,534 20,192 -15,365 -106,519 -91,153 -209,252 -354,295zm-328 -1432c-119,12 -204,90 -256,233 -42,121 -52,287 -30,499 26,254 87,438 181,552 66,81 149,116 249,105 101,-10 175,-60 223,-151 70,-129 91,-314 66,-556 -24,-239 -68,-409 -130,-509 -78,-128 -179,-186 -303,-173zm1798 230l83 803c8,78 20,126 35,144 16,17 45,27 85,28l4 40 -379 39 -14 -138c-39,64 -79,111 -121,143 -41,31 -90,50 -145,55 -52,6 -100,-7 -145,-39 -44,-31 -76,-70 -95,-116 -19,-46 -34,-128 -47,-247l-42 -406c-8,-78 -19,-126 -34,-143 -15,-17 -43,-27 -85,-29l-4 -41 378 -39 73 701c7,73 16,120 24,140 9,21 21,36 36,46 14,9 31,13 48,11 24,-2 45,-12 63,-27 25,-22 52,-64 83,-126l-56 -548c-8,-78 -20,-125 -35,-143 -14,-17 -43,-27 -84,-28l-4 -41 378 -39zm408 -544c44,-4 81,8 114,38 33,31 53,69 58,115 4,47 -7,89 -33,125 -27,35 -61,55 -104,60 -42,4 -80,-8 -113,-38 -33,-30 -52,-68 -57,-115 -5,-47 6,-88 32,-124 26,-36 61,-56 103,-61zm190 482l85 813c7,72 20,118 37,136 17,19 49,27 93,25l4 39 -502 52 -4 -39c41,-6 71,-23 87,-49 12,-18 14,-63 6,-136l-62 -599c-7,-71 -20,-117 -37,-136 -17,-18 -48,-27 -92,-25l-4 -41 389 -40zm1073 925l-810 84 -3 -25 415 -987 -149 15c-65,7 -110,19 -137,35 -26,15 -47,39 -61,68 -15,31 -27,82 -38,156l-35 3 -31 -298 783 -81 3 30 -411 977 63 -6c128,-13 218,-43 270,-89 53,-46 87,-123 104,-234l29 -3 8 355z"/>
  <path class="fil9" d="M6718 6432l98 952c8,71 16,116 24,135 9,19 23,34 45,45 21,10 54,13 98,8l26 -3 3 33 -613 63 -3 -32 31 -3c50,-5 85,-15 105,-28 20,-14 33,-31 38,-52 6,-20 5,-67 -3,-140l-63 -604c-5,-54 -11,-87 -18,-100 -7,-13 -17,-23 -32,-31 -15,-8 -32,-11 -50,-9 -30,3 -64,16 -104,37l-18 -29 407 -239 29 -3z"/>
  <path class="fil9" d="M6718 6432l98 952c8,71 16,116 24,135 9,19 23,34 45,45 21,10 54,13 98,8l26 -3 3 33 -613 63 -3 -32 31 -3c50,-5 85,-15 105,-28 20,-14 33,-31 38,-52 6,-20 5,-67 -3,-140l-63 -604c-5,-54 -11,-87 -18,-100 -7,-13 -17,-23 -32,-31 -15,-8 -32,-11 -50,-9 -30,3 -64,16 -104,37l-18 -29 407 -239 29 -3z"/>
  <path class="fil11" d="M3752 498l5527 1965c568,202 868,833 666,1402l-1966 5526c-202,569 -833,868 -1401,666l-5527 -1965c-568,-202 -868,-833 -666,-1401l1966 -5527c202,-568 833,-868 1401,-666z"/>
  <path class="fil12" d="M3656 768l5527 1965c420,150 642,616 492,1036l-1965 5526c-150,421 -616,642 -1036,493l-5527 -1966c-420,-149 -641,-615 -492,-1036l1966 -5526c149,-420 615,-642 1035,-492z"/>
  <g id="_690788632">
   <path class="fil13" d="M6995 2237c1608,487 2515,2186 2028,3794 -488,1608 -2187,2516 -3795,2028 -1608,-488 -2516,-2187 -2028,-3794 488,-1608 2187,-2516 3795,-2028z"/>
   <g>
    <path class="fil11" d="M7063 2012c1731,526 2709,2356 2184,4087 -526,1732 -2355,2710 -4087,2184 -1732,-525 -2710,-2355 -2184,-4086 525,-1732 2355,-2710 4087,-2185zm-68 225c1608,487 2515,2186 2028,3794 -488,1608 -2187,2516 -3795,2028 -1608,-488 -2516,-2187 -2028,-3794 488,-1608 2187,-2516 3795,-2028z"/>
    <path class="fil0" d="M7146 1739c1883,571 2946,2560 2375,4443 -572,1883 -2561,2947 -4444,2375 -1883,-571 -2946,-2561 -2375,-4444 571,-1882 2561,-2946 4444,-2374zm-83 273c1731,526 2709,2356 2184,4087 -526,1732 -2355,2710 -4087,2184 -1732,-525 -2710,-2355 -2184,-4086 525,-1732 2355,-2710 4087,-2185z"/>
   </g>
  </g>
  <path class="fil0" d="M3253 7516c-6,19 -10,37 -13,56 -29,42 -48,89 -55,137 -12,34 -18,71 -18,108l0 304c-7,24 -12,47 -13,71 -9,15 -17,32 -25,48 -5,6 -9,11 -14,17 -32,14 -61,34 -87,57 -31,15 -60,34 -85,57 -34,20 -65,49 -91,78 -20,17 -38,37 -56,55 -5,5 -9,9 -13,14 -5,5 -10,9 -15,14 -18,18 -36,36 -55,55 -4,4 -9,9 -13,14 -5,4 -10,9 -14,13 -14,14 -28,28 -42,42 -13,-8 -28,-14 -42,-21 -21,-11 -42,-19 -64,-25l-5 -2 -33 -22c-26,-17 -54,-30 -83,-40 -12,-18 -25,-35 -40,-51l6 6 -17 -34c-15,-29 -33,-55 -54,-78l-3 -4c-15,-40 -38,-76 -66,-106l-5 -9c-15,-60 -46,-111 -89,-155 -19,-37 -40,-68 -71,-97l-12 -13c-17,-35 -39,-66 -66,-93l-17 -17c-12,-25 -25,-47 -43,-69 -14,-36 -31,-64 -54,-95 -10,-55 -33,-105 -66,-148 -5,-41 -18,-81 -37,-116 -4,-15 -10,-30 -16,-44l0 -171c0,-184 -149,-333 -333,-333 -87,0 -166,34 -225,88l-110 -143c-105,-85 -212,-168 -315,-255 -452,-383 -773,-808 -784,-1424 -6,-345 80,-675 250,-960 58,52 136,83 220,83 158,0 290,-109 324,-256 58,13 120,11 181,-9l31 -10 -26 0 0 0c78,0 157,-28 219,-83l29 0 0 0c11,0 22,-1 34,-2 53,36 117,57 186,57 184,0 333,-149 333,-333l0 -32c6,-8 12,-17 18,-26 16,-22 29,-48 41,-73 17,-30 29,-63 36,-96 2,-7 4,-14 5,-21 16,-36 26,-75 28,-113 291,-4 581,55 844,175l0 22c-8,28 -12,57 -13,86 -21,47 -28,90 -28,141l-7 37c-36,180 81,356 261,392 172,34 340,-71 386,-237 29,32 57,66 84,101 498,655 319,1488 95,2208 -2,31 -42,318 -48,316 -207,-94 -385,90 -385,329l0 41c0,99 43,188 111,249 13,14 28,28 41,41 26,26 55,47 87,63l-4 7c-13,24 -23,49 -30,74 -18,34 -30,69 -36,105 -6,18 -10,36 -14,55zm521 495l-25 28c9,-9 17,-18 25,-28z"/>
  <path class="fil11" d="M1643 7559c-85,-67 -124,-173 -102,-281 2,-11 5,-24 6,-36 -2,-29 0,-59 6,-87l-323 -419c-110,-89 -221,-175 -329,-266 -408,-345 -709,-726 -719,-1288 -8,-502 193,-961 583,-1280 742,-609 1930,-546 2526,237 458,601 268,1397 62,2056l-59 397c29,18 55,41 78,70 54,67 73,146 57,231 -5,26 -8,58 -12,89 109,66 163,196 128,322 -3,12 -7,24 -10,36 17,11 33,25 48,40 61,61 90,137 84,223 -1,14 -3,33 -2,49 14,49 17,99 5,150 -16,69 -45,106 -79,139 15,380 -129,480 -413,784 -70,75 -165,105 -264,86l-623 -122c-121,-24 -210,-117 -228,-239l-3 -20c-146,-17 -256,-141 -254,-289 1,-61 0,-121 9,-179 -49,-41 -78,-97 -125,-161 -53,-72 -69,-160 -47,-242z"/>
  <path class="fil9" d="M4189 4181c-6,15 -10,32 -14,52 -3,19 -4,38 -2,57 1,11 4,21 7,30 3,10 9,18 16,25 7,6 16,11 28,14 12,3 28,4 47,2l124 -14 -14 -136c-3,-30 -2,-57 4,-82 6,-24 16,-45 31,-63 14,-17 33,-31 55,-42 23,-11 49,-18 79,-21l94 -8c9,-1 17,0 25,3 8,3 15,7 22,13 6,5 11,12 15,20 5,7 7,15 8,24l27 257 77 -8 13 129 -142 15c-9,1 -18,0 -26,-2 -8,-3 -15,-7 -21,-12 -7,-5 -12,-12 -16,-19 -5,-8 -7,-16 -8,-25l-27 -259c-5,0 -10,0 -15,0 -5,1 -10,1 -15,2 -11,1 -19,3 -27,6 -7,2 -12,6 -16,12 -4,5 -7,11 -8,19 -1,7 -1,17 0,28l21 196c1,10 1,19 -1,28 -3,8 -6,16 -11,23 -5,7 -11,13 -19,17 -7,5 -16,7 -26,8l-190 20c-40,4 -75,2 -104,-7 -29,-10 -53,-23 -73,-41 -19,-18 -34,-39 -44,-64 -10,-24 -17,-50 -20,-76 -1,-14 -2,-29 -1,-44 1,-15 2,-30 5,-45 2,-14 6,-29 9,-42 4,-14 8,-26 12,-38l121 48zm166 443c-1,-10 -1,-19 2,-28 3,-8 7,-16 12,-23 6,-7 13,-13 21,-17 8,-5 16,-7 26,-8 10,-1 19,0 28,2 8,3 16,7 23,12 7,6 13,13 17,21 5,8 8,17 9,27 1,9 0,18 -3,27 -3,8 -7,16 -13,23 -6,7 -12,13 -20,17 -8,5 -17,8 -27,9 -9,1 -18,0 -27,-3 -9,-3 -17,-7 -24,-12 -7,-6 -12,-13 -17,-21 -4,-8 -6,-17 -7,-26zm-156 16c-1,-10 0,-19 3,-28 2,-8 7,-16 12,-23 6,-7 13,-13 21,-17 8,-4 16,-7 26,-8 10,-1 19,0 27,2 9,3 17,7 24,13 7,5 13,12 17,20 5,8 7,17 8,27 1,9 1,18 -2,27 -3,9 -7,16 -13,23 -6,7 -12,13 -20,18 -8,4 -17,7 -27,8 -9,1 -19,0 -27,-3 -9,-3 -17,-7 -24,-12 -7,-6 -12,-13 -17,-21 -4,-8 -7,-17 -8,-26zm609 -335l143 -15 -31 -308 129 -13 38 367c0,1 0,2 0,3 0,1 1,2 1,2 1,9 0,18 -3,26 -3,8 -7,16 -12,22 -5,7 -12,12 -19,16 -8,4 -16,7 -25,8l-207 21 -14 -129zm79 264c-1,-10 0,-19 3,-28 2,-9 6,-17 12,-24 6,-6 13,-12 21,-17 7,-4 16,-6 26,-7 9,-1 19,-1 27,2 9,3 17,7 24,12 7,6 13,13 17,21 5,8 7,17 8,26 1,10 0,19 -2,27 -3,9 -7,17 -13,24 -6,7 -12,13 -21,17 -7,5 -16,8 -26,9 -9,1 -19,0 -27,-3 -9,-3 -17,-7 -24,-13 -7,-5 -12,-12 -17,-20 -4,-8 -7,-17 -8,-26zm529 -196l-164 17c-9,1 -18,0 -26,-3 -8,-2 -16,-6 -22,-11 -7,-6 -12,-12 -17,-19 -4,-8 -6,-16 -7,-25 0,-1 -1,-2 -1,-2 0,-1 0,-2 0,-4l-58 -564 129 -13 52 505 101 -11 13 130zm-8 1l-13 -130 102 -10 -32 -309 129 -13 32 308 93 -10 13 130 -324 34zm116 129c-1,-10 0,-19 2,-28 3,-9 7,-16 12,-24 6,-6 13,-12 21,-16 8,-5 17,-7 26,-8 10,-1 19,-1 28,2 8,3 16,7 23,12 7,6 13,13 17,21 5,8 8,17 9,26 1,10 0,19 -3,28 -3,8 -7,16 -13,23 -5,7 -12,13 -20,17 -8,5 -17,8 -27,9 -9,1 -18,0 -27,-3 -9,-3 -16,-7 -23,-13 -7,-5 -13,-12 -17,-20 -5,-8 -7,-17 -8,-26zm186 -292l108 -11 -32 -308 130 -13 32 308 93 -10 -32 -308 129 -13 32 308 94 -10 -32 -308 129 -14 39 373c1,9 0,18 -3,26 -2,8 -6,16 -11,22 -5,7 -12,12 -20,16 -7,4 -15,7 -24,8l-619 64 -13 -130zm265 -596c-1,-9 0,-19 3,-27 3,-9 7,-17 12,-24 6,-7 12,-12 20,-16 8,-5 17,-7 26,-8 10,-1 19,-1 28,2 8,3 16,7 23,12 7,6 13,13 17,21 5,8 7,16 8,26 1,10 0,19 -2,27 -3,9 -7,17 -13,24 -5,7 -12,12 -20,17 -8,4 -17,7 -27,8 -9,1 -18,0 -26,-3 -9,-3 -17,-7 -24,-12 -7,-6 -12,-13 -17,-21 -4,-8 -7,-16 -8,-26zm-67 140c-1,-9 0,-19 3,-27 2,-9 6,-17 12,-24 6,-7 13,-12 21,-17 8,-4 16,-6 26,-7 9,-1 19,-1 27,2 9,3 17,7 24,12 7,6 12,13 17,21 4,7 7,16 8,26 1,9 0,19 -3,27 -2,9 -6,17 -12,24 -6,6 -13,12 -21,16 -7,5 -16,7 -26,8 -10,1 -19,1 -27,-2 -9,-3 -17,-7 -24,-12 -7,-6 -12,-13 -17,-21 -5,-8 -7,-16 -8,-26zm162 -17c-1,-9 0,-18 3,-27 2,-9 7,-17 12,-23 6,-7 13,-13 21,-17 7,-5 16,-7 26,-8 9,-1 18,0 27,2 9,3 17,7 24,12 6,6 12,13 16,21 5,8 7,17 8,26 1,10 0,19 -2,27 -3,9 -7,17 -12,24 -6,7 -13,12 -21,17 -8,4 -17,7 -26,8 -10,1 -19,0 -27,-3 -9,-2 -17,-7 -24,-12 -7,-6 -12,-13 -17,-21 -4,-7 -7,-16 -8,-26z"/>
  <path class="fil10" d="M5381 6440c40,94 95,162 164,205 70,42 153,58 251,48 26,-2 54,-9 83,-18l6 67c-96,38 -184,62 -264,70 -123,13 -237,-9 -341,-66 -104,-57 -187,-146 -250,-269 -167,-22 -307,-96 -422,-224 -114,-127 -181,-287 -201,-479 -23,-222 25,-414 145,-575 121,-162 285,-253 494,-275 208,-22 386,35 536,168 150,134 236,312 259,534 20,192 -15,365 -106,519 -91,153 -209,252 -354,295zm-328 -1432c-119,13 -204,91 -256,233 -42,121 -52,287 -30,499 26,254 86,438 181,552 66,81 149,116 249,105 101,-10 175,-60 223,-151 70,-129 91,-314 66,-556 -24,-239 -68,-409 -130,-509 -78,-128 -179,-186 -303,-173zm1798 230l83 803c8,78 20,126 35,144 16,17 45,27 85,28l4 40 -379 39 -14 -138c-39,64 -79,111 -121,143 -41,32 -90,50 -145,55 -52,6 -100,-7 -145,-39 -44,-31 -76,-70 -95,-116 -19,-46 -34,-128 -47,-247l-42 -406c-8,-78 -19,-126 -34,-143 -15,-17 -43,-27 -85,-29l-4 -41 378 -39 73 702c7,72 16,119 24,139 9,21 21,36 36,46 14,9 30,13 48,11 24,-2 45,-12 63,-27 25,-22 52,-64 83,-126l-56 -547c-8,-78 -20,-126 -35,-143 -14,-18 -43,-27 -84,-29l-4 -41 378 -39zm408 -544c43,-4 81,9 114,38 33,31 53,69 57,115 5,47 -6,89 -32,125 -27,36 -61,56 -104,60 -42,4 -80,-8 -113,-38 -34,-30 -52,-68 -57,-115 -5,-46 6,-87 32,-124 26,-36 61,-56 103,-61zm190 482l84 813c8,72 21,118 38,136 17,19 48,27 93,25l4 39 -502 52 -4 -39c41,-6 70,-22 87,-49 12,-18 14,-63 6,-135l-62 -600c-7,-71 -20,-117 -37,-135 -17,-19 -48,-28 -92,-26l-4 -41 389 -40zm1073 925l-810 84 -3 -25 415 -987 -150 15c-64,7 -109,19 -136,35 -26,16 -47,39 -61,69 -15,30 -27,81 -38,155l-35 3 -31 -298 783 -81 3 30 -411 978 63 -7c128,-13 218,-43 270,-89 53,-45 87,-123 104,-234l29 -2 8 354z"/>
  <path class="fil4" d="M1269 4975c27,-197 220,-254 401,-158 -69,224 -181,274 -401,158zm-282 -520c29,-440 833,-770 1134,-330 -43,473 -850,770 -1134,330zm440 2099l521 6c-35,-110 -204,-692 -255,-738 -52,-46 -329,110 -283,-205 9,-60 30,-60 89,-84 315,-109 140,281 582,64 265,-130 66,-203 240,-313 111,-71 373,28 128,263 -111,107 -100,87 -43,253 53,151 105,302 158,453l25 74c261,-101 312,-256 476,-177 174,-556 381,-1304 -11,-1819 -760,-999 -2619,-531 -2594,865 11,661 537,1005 967,1358z"/>
  <path class="fil6" d="M987 4455c284,440 1091,143 1134,-330 -301,-440 -1105,-110 -1134,330z"/>
  <path class="fil7" d="M1529 5680c-23,-57 107,-73 62,-9 -15,22 -41,32 -62,9zm900 -303c39,68 -111,79 -53,3 18,-22 34,-21 53,-3zm-481 1183l155 549 110 -14 -171 -571c-34,-98 -268,-701 -228,-752 49,-44 413,-154 443,-134 46,31 164,455 187,537 11,38 22,75 33,113 10,33 21,66 31,99l182 553 87 -26 -188 -587c-38,-105 -247,-631 -215,-701 32,-68 251,-208 128,-327 -84,-82 -202,-4 -246,87 -80,168 -6,140 -210,223 -88,35 -158,73 -249,31 -99,-60 -217,-199 -353,-85 -89,74 -38,224 82,253 158,39 161,-48 241,177 49,139 90,285 133,426 16,49 32,99 48,149z"/>
  <polygon class="fil4" points="2042,6524 2508,6387 2264,5616 1787,5772 "/>
  <path class="fil2" d="M2589 6327l188 587 182 -63 106 -701c-164,-79 -215,76 -476,177z"/>
  <path class="fil14" d="M1269 4975c220,116 332,66 401,-158 -181,-96 -374,-39 -401,158z"/>
  <path class="fil4" d="M2336 5492c170,-73 112,-3 141,-167 -185,29 -159,-26 -141,167z"/>
  <path class="fil8" d="M1484 5630c43,147 -34,90 169,83 -96,-168 40,-138 -169,-83z"/>
  <rect class="fil15 str1" transform="matrix(1.02156 -0.317665 0.317665 1.02156 1935.97 7335.09)" width="1059" height="222" rx="88" ry="88"/>
  <rect class="fil15 str1" transform="matrix(1.02156 -0.317665 0.317665 1.02156 2080.34 7790.33)" width="1059" height="222" rx="88" ry="88"/>
  <path class="fil15 str1" d="M2315 8218l902 -281c49,-15 102,13 118,62l14 47c16,49 -304,417 -354,432l-196 57c-50,14 -516,-103 -532,-153l-14 -46c-16,-50 12,-103 62,-118z"/>
  <rect class="fil16 str1" transform="matrix(1.15209 -0.358252 0.317665 1.02156 1940.71 7585.09)" width="1059" height="222" rx="88" ry="88"/>
  <rect class="fil16 str1" transform="matrix(1.15209 -0.358252 0.317665 1.02156 2085.08 8040.33)" width="1059" height="222" rx="88" ry="88"/>
  <polygon class="fil2" points="2042,6524 2213,7095 2690,6940 2508,6387 "/>
  <polygon class="fil2" points="1923,7195 2103,7109 1948,6560 1427,6554 "/>
  <path class="fil1" d="M2010 7395l16 75c255,34 287,-14 540,-93 302,-94 392,-28 382,-280l-938 298z"/>
  <rect class="fil16 str1" transform="matrix(1.15209 -0.358252 0.317665 1.02156 1796.34 7129.86)" width="1059" height="222" rx="88" ry="88"/>
  <path class="fil17 str2" d="M5239 8222l-692 522c-100,75 -197,154 -297,230 -101,75 -225,151 -350,71 -127,-81 -110,-222 -84,-347 26,-122 56,-244 82,-366l161 -763c8,9 16,17 25,25 33,35 74,65 120,88l17 9c32,17 66,29 102,38 29,13 60,22 92,28l2 1c31,18 65,32 101,41 20,13 40,25 62,35 15,13 31,26 49,39 24,23 51,43 80,60 20,15 42,29 65,40 15,8 31,16 46,23 40,29 80,48 127,64 6,3 13,6 19,9 39,28 83,50 130,65l3 1c40,37 88,67 140,87z"/>
  <path class="fil15 str3" d="M4320 7306c311,218 622,436 933,654 -276,208 -551,416 -826,624 -536,403 -471,445 -333,-211 75,-356 151,-711 226,-1067z"/>
  <polygon class="fil0" points="8456,692 8528,1037 8764,1143 8528,1250 8456,1595 8383,1250 8147,1143 8383,1037 "/>
  <polygon class="fil0" points="1878,1573 1954,1817 2198,1893 1954,1968 1878,2212 1803,1968 1559,1893 1803,1817 "/>
  <polygon class="fil0 str2" points="8863,8602 8959,8914 9271,9009 8959,9105 8863,9417 8767,9105 8456,9009 8767,8914 "/>
  <polygon class="fil0 str2" points="9328,7390 9401,7630 9642,7704 9401,7778 9328,8018 9254,7778 9014,7704 9254,7630 "/>
  <path class="fil0 str2" d="M2577 9564c247,0 447,200 447,446 0,247 -200,447 -447,447 -246,0 -446,-200 -446,-447 0,-246 200,-446 446,-446zm0 182c146,0 265,118 265,264 0,146 -119,265 -265,265 -146,0 -264,-119 -264,-265 0,-146 118,-264 264,-264z"/>
  <path class="fil0 str2" d="M9463 1445c175,0 317,142 317,317 0,175 -142,316 -317,316 -175,0 -317,-141 -317,-316 0,-175 142,-317 317,-317zm0 129c103,0 187,84 187,188 0,103 -84,187 -187,187 -104,0 -188,-84 -188,-187 0,-104 84,-188 188,-188z"/>
  <path class="fil0 str2" d="M1028 2414c175,0 317,142 317,317 0,175 -142,317 -317,317 -175,0 -317,-142 -317,-317 0,-175 142,-317 317,-317zm0 129c104,0 188,84 188,188 0,103 -84,187 -188,187 -104,0 -188,-84 -188,-187 0,-104 84,-188 188,-188z"/>
 </g>
</svg>
